<?xml version="1.0" encoding="utf-8"?>
<!-- Generator: Adobe Illustrator 22.1.0, SVG Export Plug-In . SVG Version: 6.00 Build 0)  -->
<svg version="1.1" id="Layer_1" xmlns="http://www.w3.org/2000/svg" xmlns:xlink="http://www.w3.org/1999/xlink" x="0px" y="0px"
	 viewBox="0 0 242.5 223.6" style="enable-background:new 0 0 242.5 223.6;" xml:space="preserve">
<style type="text/css">
	.st0{display:none;fill:#423031;}
	.st1{fill:#FFFFFF;}
	.st2{fill:#BE2025;}
</style>
<rect x="-5.3" y="-9.7" class="st0" width="267" height="242"/>
<g>
	<path id="stroke" class="st1" d="M43.8,223.6l152.8,0.1c15.2,0.5,44.6-21.7,44.6-40.4V40.2C240.8,19.7,215.5,1.3,192.9,0L50.6,0.2
		c-29.3,6-43.5,12.2-48.9,40v142.1C1.4,198.7,15.4,218.9,43.8,223.6z"/>
	<g>
		<g>
			<path class="st2" d="M122.2,223.6h-3.9c0.5,0,1,0.1,1.5,0.1C120.6,223.8,121.4,223.7,122.2,223.6z"/>
			<path class="st2" d="M31.4,148.7c0-79.9,62.2-128.6,95.1-148.6H44.3c-24,0-43.4,18-43.4,40.2v143.1c0,22.2,19.4,40.3,43.4,40.3
				h20.2C42.1,206.4,31.4,178.3,31.4,148.7z"/>
			<path class="st2" d="M198.5,0h-36c-1.1,0.4-4.6,1.7-10.2,5.5C137.2,16.9,108.5,32,85,97.6l0.8-0.6c16-12.8,28.3-19.9,51.1-19.3
				c32.4,0.8,73.7,23.8,72.8,78c-0.5,31.2-15.2,53.9-35.2,68h23.9c24,0,43.4-18,43.4-40.3V40.3C241.9,18.1,222.5,0,198.5,0z"/>
			<path class="st2" d="M163.6,166c0-43.4-19.6-62.1-43.4-62.1c-32.4,0-41.2,27.4-41.2,58.8c0,27.3,10.3,59.6,39.3,61h3.9
				C141.9,222.3,163.6,201.9,163.6,166z"/>
		</g>
	</g>
</g>
</svg>
